<?xml version="1.0" encoding="utf-8"?><!-- Uploaded to: SVG Repo, www.svgrepo.com, Generator: SVG Repo Mixer Tools -->
<svg fill="#000000" width="800px" height="800px" viewBox="0 0 24 24" id="help" data-name="Line Color" xmlns="http://www.w3.org/2000/svg" class="icon line-color"><line id="secondary" x1="14.41" y1="3.58" x2="13.17" y2="7.9" style="fill: none; stroke: rgb(44, 169, 188); stroke-linecap: round; stroke-linejoin: round; stroke-width: 2;"></line><line id="secondary-2" data-name="secondary" x1="9.59" y1="3.58" x2="10.83" y2="7.9" style="fill: none; stroke: rgb(44, 169, 188); stroke-linecap: round; stroke-linejoin: round; stroke-width: 2;"></line><line id="secondary-3" data-name="secondary" x1="20.42" y1="14.41" x2="16.1" y2="13.17" style="fill: none; stroke: rgb(44, 169, 188); stroke-linecap: round; stroke-linejoin: round; stroke-width: 2;"></line><line id="secondary-4" data-name="secondary" x1="20.42" y1="9.59" x2="16.1" y2="10.83" style="fill: none; stroke: rgb(44, 169, 188); stroke-linecap: round; stroke-linejoin: round; stroke-width: 2;"></line><line id="secondary-5" data-name="secondary" x1="9.59" y1="20.42" x2="10.83" y2="16.1" style="fill: none; stroke: rgb(44, 169, 188); stroke-linecap: round; stroke-linejoin: round; stroke-width: 2;"></line><line id="secondary-6" data-name="secondary" x1="14.41" y1="20.42" x2="13.17" y2="16.1" style="fill: none; stroke: rgb(44, 169, 188); stroke-linecap: round; stroke-linejoin: round; stroke-width: 2;"></line><line id="secondary-7" data-name="secondary" x1="3.58" y1="9.59" x2="7.9" y2="10.83" style="fill: none; stroke: rgb(44, 169, 188); stroke-linecap: round; stroke-linejoin: round; stroke-width: 2;"></line><line id="secondary-8" data-name="secondary" x1="3.58" y1="14.41" x2="7.9" y2="13.17" style="fill: none; stroke: rgb(44, 169, 188); stroke-linecap: round; stroke-linejoin: round; stroke-width: 2;"></line><path id="primary" d="M21,12a9,9,0,1,1-9-9A9,9,0,0,1,21,12ZM12,8a4,4,0,1,0,4,4A4,4,0,0,0,12,8Z" style="fill: none; stroke: rgb(0, 0, 0); stroke-linecap: round; stroke-linejoin: round; stroke-width: 2;"></path></svg>